<svg width="180" height="35" viewBox="0 0 180 35" fill="none" xmlns="http://www.w3.org/2000/svg">
<path d="M34.4 28H44.312V26.104H36.632V10.384H34.4V28ZM47.2393 28H49.4233V14.968H47.2393V28ZM48.3433 12.28C49.2073 12.28 49.8073 11.704 49.8073 10.816C49.8073 9.976 49.2073 9.4 48.3433 9.4C47.4793 9.4 46.8793 9.976 46.8793 10.816C46.8793 11.704 47.4793 12.28 48.3433 12.28ZM54.2086 28H56.3926V16.744H59.1526V14.968H56.3926V12.904C56.3926 11.224 56.9926 10.336 58.2406 10.336C58.6966 10.336 59.2246 10.456 59.7046 10.672L60.1846 9.016C59.5846 8.752 58.7926 8.584 58.0006 8.584C55.4086 8.584 54.2086 10.24 54.2086 12.88V14.968L52.4326 15.088V16.744H54.2086V28ZM66.6515 28.312C68.4275 28.312 69.8195 27.712 70.9715 26.968L70.1795 25.528C69.2195 26.176 68.1875 26.56 66.9155 26.56C64.4435 26.56 62.7395 24.784 62.5955 22H71.3795C71.4275 21.688 71.4755 21.232 71.4755 20.752C71.4755 17.032 69.6035 14.632 66.2915 14.632C63.2675 14.632 60.4115 17.272 60.4115 21.496C60.4115 25.792 63.1955 28.312 66.6515 28.312ZM62.5715 20.416C62.8355 17.872 64.4675 16.384 66.3155 16.384C68.3555 16.384 69.5555 17.8 69.5555 20.416H62.5715ZM86.8918 28.312C89.1718 28.312 90.8998 27.4 92.2918 25.792L91.0677 24.4C89.9398 25.624 88.6678 26.368 86.9878 26.368C83.6278 26.368 81.5158 23.584 81.5158 19.144C81.5158 14.752 83.7238 12.016 87.0598 12.016C88.5718 12.016 89.7478 12.712 90.6598 13.696L91.8598 12.256C90.8518 11.128 89.1718 10.072 87.0358 10.072C82.5718 10.072 79.2358 13.528 79.2358 19.216C79.2358 24.928 82.5238 28.312 86.8918 28.312ZM98.3564 28.312C99.9644 28.312 101.428 27.472 102.676 26.44H102.748L102.94 28H104.74V19.984C104.74 16.768 103.396 14.632 100.228 14.632C98.1404 14.632 96.2924 15.568 95.0924 16.336L95.9564 17.848C96.9884 17.152 98.3564 16.456 99.8684 16.456C102.004 16.456 102.556 18.064 102.556 19.744C97.0124 20.368 94.5404 21.784 94.5404 24.616C94.5404 26.968 96.1724 28.312 98.3564 28.312ZM98.9804 26.56C97.6844 26.56 96.6764 25.96 96.6764 24.472C96.6764 22.792 98.1644 21.712 102.556 21.184V24.832C101.284 25.96 100.252 26.56 98.9804 26.56ZM111.207 28.312C111.807 28.312 112.167 28.24 112.479 28.12L112.167 26.44C111.927 26.488 111.831 26.488 111.711 26.488C111.375 26.488 111.087 26.224 111.087 25.552V8.896H108.903V25.408C108.903 27.256 109.575 28.312 111.207 28.312ZM121.003 28.312C122.779 28.312 124.171 27.712 125.323 26.968L124.531 25.528C123.571 26.176 122.539 26.56 121.267 26.56C118.795 26.56 117.091 24.784 116.947 22H125.731C125.779 21.688 125.827 21.232 125.827 20.752C125.827 17.032 123.955 14.632 120.643 14.632C117.619 14.632 114.763 17.272 114.763 21.496C114.763 25.792 117.547 28.312 121.003 28.312ZM116.923 20.416C117.187 17.872 118.819 16.384 120.667 16.384C122.707 16.384 123.907 17.8 123.907 20.416H116.923ZM129.036 28H131.22V18.544C132.54 17.224 133.452 16.552 134.796 16.552C136.524 16.552 137.268 17.584 137.268 20.032V28H139.452V19.744C139.452 16.408 138.204 14.632 135.468 14.632C133.692 14.632 132.348 15.616 131.1 16.84H131.028L130.836 14.968H129.036V28ZM148.148 28.312C149.708 28.312 151.076 27.472 152.108 26.464H152.18L152.372 28H154.148V8.896H151.988V13.912L152.084 16.168C150.932 15.208 149.948 14.632 148.412 14.632C145.436 14.632 142.772 17.272 142.772 21.496C142.772 25.84 144.884 28.312 148.148 28.312ZM148.628 26.488C146.324 26.488 145.028 24.616 145.028 21.472C145.028 18.496 146.684 16.48 148.796 16.48C149.876 16.48 150.86 16.864 151.988 17.848V24.688C150.884 25.888 149.828 26.488 148.628 26.488ZM161.591 28.312C163.199 28.312 164.663 27.472 165.911 26.44H165.983L166.175 28H167.975V19.984C167.975 16.768 166.631 14.632 163.463 14.632C161.375 14.632 159.527 15.568 158.327 16.336L159.191 17.848C160.223 17.152 161.591 16.456 163.103 16.456C165.239 16.456 165.791 18.064 165.791 19.744C160.247 20.368 157.775 21.784 157.775 24.616C157.775 26.968 159.407 28.312 161.591 28.312ZM162.215 26.56C160.919 26.56 159.911 25.96 159.911 24.472C159.911 22.792 161.399 21.712 165.791 21.184V24.832C164.519 25.96 163.487 26.56 162.215 26.56ZM172.138 28H174.322V19.624C175.186 17.392 176.53 16.624 177.61 16.624C178.138 16.624 178.45 16.672 178.882 16.84L179.29 14.92C178.882 14.704 178.474 14.632 177.898 14.632C176.434 14.632 175.114 15.688 174.202 17.344H174.13L173.938 14.968H172.138V28Z" fill="#111111"/>
<path d="M1.5625 14C1.23438 14 1 14.2812 1 14.5625V26.75C1 28.0156 1.98438 29 3.25 29H19.75C20.9688 29 22 28.0156 22 26.75V14.5625C22 14.2812 21.7188 14 21.4375 14H1.5625ZM22 11.9375V10.25C22 9.03125 20.9688 8 19.75 8H17.5V5.5625C17.5 5.28125 17.2188 5 16.9375 5H15.0625C14.7344 5 14.5 5.28125 14.5 5.5625V8H8.5V5.5625C8.5 5.28125 8.21875 5 7.9375 5H6.0625C5.73438 5 5.5 5.28125 5.5 5.5625V8H3.25C1.98438 8 1 9.03125 1 10.25V11.9375C1 12.2656 1.23438 12.5 1.5625 12.5H21.4375C21.7188 12.5 22 12.2656 22 11.9375Z" fill="#111111"/>
<path d="M17.5 8H16.5V9H17.5V8ZM14.5 8V9H15.5V8H14.5ZM8.5 8H7.5V9H8.5V8ZM5.5 8V9H6.5V8H5.5ZM1.5625 13C0.629007 13 0 13.7836 0 14.5625H2C2 14.6937 1.9493 14.7946 1.88522 14.8624C1.81342 14.9384 1.69806 15 1.5625 15V13ZM0 14.5625V26.75H2V14.5625H0ZM0 26.75C0 28.5679 1.43209 30 3.25 30V28C2.53666 28 2 27.4633 2 26.75H0ZM3.25 30H19.75V28H3.25V30ZM19.75 30C21.5074 30 23 28.5814 23 26.75H21C21 27.4498 20.4301 28 19.75 28V30ZM23 26.75V14.5625H21V26.75H23ZM23 14.5625C23 14.0966 22.7771 13.7145 22.5313 13.4687C22.2855 13.2229 21.9034 13 21.4375 13V15C21.2529 15 21.152 14.9178 21.1171 14.8829C21.0822 14.848 21 14.7471 21 14.5625H23ZM21.4375 13H1.5625V15H21.4375V13ZM23 11.9375V10.25H21V11.9375H23ZM23 10.25C23 8.47897 21.521 7 19.75 7V9C20.4165 9 21 9.58353 21 10.25H23ZM19.75 7H17.5V9H19.75V7ZM18.5 8V5.5625H16.5V8H18.5ZM18.5 5.5625C18.5 5.09664 18.2771 4.71449 18.0313 4.46867C17.7855 4.22286 17.4034 4 16.9375 4V6C16.7529 6 16.652 5.91777 16.6171 5.88289C16.5822 5.84801 16.5 5.74711 16.5 5.5625H18.5ZM16.9375 4H15.0625V6H16.9375V4ZM15.0625 4C14.129 4 13.5 4.78359 13.5 5.5625H15.5C15.5 5.69365 15.4493 5.79455 15.3852 5.8624C15.3134 5.93843 15.1981 6 15.0625 6V4ZM13.5 5.5625V8H15.5V5.5625H13.5ZM14.5 7H8.5V9H14.5V7ZM9.5 8V5.5625H7.5V8H9.5ZM9.5 5.5625C9.5 5.09664 9.27714 4.71449 9.03133 4.46867C8.78551 4.22286 8.40336 4 7.9375 4V6C7.75289 6 7.65199 5.91777 7.61711 5.88289C7.58223 5.84801 7.5 5.74711 7.5 5.5625H9.5ZM7.9375 4H6.0625V6H7.9375V4ZM6.0625 4C5.12901 4 4.5 4.78359 4.5 5.5625H6.5C6.5 5.69365 6.4493 5.79455 6.38522 5.8624C6.31342 5.93843 6.19806 6 6.0625 6V4ZM4.5 5.5625V8H6.5V5.5625H4.5ZM5.5 7H3.25V9H5.5V7ZM3.25 7C1.41857 7 0 8.49258 0 10.25H2C2 9.56992 2.55018 9 3.25 9V7ZM0 10.25V11.9375H2V10.25H0ZM0 11.9375C0 12.8179 0.68209 13.5 1.5625 13.5V11.5C1.64304 11.5 1.76329 11.5327 1.86531 11.6347C1.96733 11.7367 2 11.857 2 11.9375H0ZM1.5625 13.5H21.4375V11.5H1.5625V13.5ZM21.4375 13.5C22.2164 13.5 23 12.871 23 11.9375H21C21 11.8019 21.0616 11.6866 21.1376 11.6148C21.2054 11.5507 21.3063 11.5 21.4375 11.5V13.5Z" fill="white"/>
<path d="M10.9395 24.3525H15.2939V26H8.88867V16.0469H10.9395V24.3525Z" fill="white"/>
</svg>
