<svg width="277" height="214" viewBox="0 0 277 214" fill="none" xmlns="http://www.w3.org/2000/svg">
<path d="M225.802 141.658C226.112 141.216 226.33 140.705 226.44 140.161C226.551 139.617 226.552 139.052 226.442 138.508C226.333 137.963 226.116 137.452 225.807 137.009C225.498 136.566 225.104 136.204 224.653 135.946L225.34 127.261L220.635 125.515L219.822 137.796C219.478 138.655 219.434 139.624 219.697 140.517C219.96 141.41 220.512 142.167 221.249 142.643C221.986 143.119 222.856 143.282 223.695 143.1C224.534 142.919 225.283 142.406 225.801 141.659L225.802 141.658Z" fill="#FFB8B8"/>
<path d="M249.279 209.184H245.045L243.03 191.242H249.282L249.279 209.184Z" fill="#FFB8B8"/>
<path d="M242.019 207.854H250.188V213.502H236.876C236.876 212.004 237.418 210.568 238.382 209.508C239.347 208.449 240.655 207.854 242.019 207.854Z" fill="#2F2E41"/>
<path d="M239.666 197.279L235.553 198.389L229.697 181.495L235.768 179.857L239.666 197.279Z" fill="#FFB8B8"/>
<path d="M232.384 197.73L240.316 195.586L241.545 201.07L228.619 204.564C228.293 203.11 228.506 201.573 229.212 200.291C229.919 199.009 231.059 198.088 232.384 197.73V197.73Z" fill="#2F2E41"/>
<path d="M244.323 203.463C243.936 203.464 243.563 203.307 243.275 203.023C242.988 202.739 242.807 202.348 242.767 201.925L237.894 152.067L233.653 167.313L239.66 191.127C239.763 191.535 239.726 191.971 239.554 192.351C239.383 192.73 239.09 193.027 238.732 193.184L233.956 195.282C233.759 195.368 233.549 195.41 233.337 195.404C233.125 195.399 232.917 195.346 232.724 195.25C232.532 195.154 232.359 195.015 232.216 194.843C232.073 194.672 231.964 194.47 231.894 194.25L224.532 171.057C223.727 168.524 223.37 165.846 223.482 163.166L224.509 138.136L251.573 139.394L251.15 201.322C251.145 201.753 250.994 202.167 250.726 202.482C250.458 202.797 250.092 202.99 249.701 203.025L244.445 203.46C244.404 203.462 244.363 203.463 244.323 203.463Z" fill="#2F2E41"/>
<path d="M239.841 82.7415C244.867 82.7415 248.941 78.2677 248.941 72.749C248.941 67.2303 244.867 62.7565 239.841 62.7565C234.815 62.7565 230.741 67.2303 230.741 72.749C230.741 78.2677 234.815 82.7415 239.841 82.7415Z" fill="#FFB8B8"/>
<path d="M246.533 141.022C244.137 141.022 241.161 140.807 238.079 140.585C233.87 140.28 229.518 139.966 226.269 140.172C225.831 140.22 225.388 140.144 224.984 139.951C224.58 139.757 224.227 139.454 223.96 139.068C220.611 134.359 225.776 115.997 225.998 115.218L230.201 94.6852L230.382 94.73L230.201 94.6852C231.127 90.1692 234.081 86.838 237.913 85.9918C241.499 85.2009 244.968 86.7774 247.193 90.2128C247.311 90.395 247.429 90.5821 247.547 90.7738C254.791 102.555 250.694 131.824 250.419 133.712C250.802 134.215 252.871 137.061 252.302 139.038C252.071 139.842 251.442 140.39 250.434 140.665C249.15 140.944 247.841 141.064 246.532 141.021L246.533 141.022Z" fill="#1A1A4E"/>
<path d="M226.416 141.031C225.591 141.031 224.48 140.697 222.981 140.014C222.336 139.72 220.375 138.824 222.756 115.981C223.925 104.76 225.6 93.6177 225.617 93.5066L225.633 93.3992L225.723 93.3544C225.766 93.3329 230.044 91.1799 230.788 88.4129C230.813 88.3172 230.842 88.2243 230.875 88.1342C231.08 87.5192 231.493 87.0147 232.028 86.726C232.563 86.4373 233.179 86.3868 233.748 86.585C234.348 86.7425 234.872 87.1451 235.212 87.7108C235.552 88.2766 235.683 88.9632 235.579 89.6314C235.32 91.4361 234.822 93.1895 234.1 94.8358C232.087 99.3965 230.723 111.487 230.71 111.609C230.633 112.641 228.806 137.106 228.454 138.963C228.331 139.611 228.105 140.405 227.442 140.79C227.123 140.962 226.771 141.046 226.417 141.034L226.416 141.031Z" fill="#2F2E41"/>
<path d="M236.357 140.094C236.191 140.094 236.029 140.033 235.898 139.921C233.221 137.687 237.553 110.607 240.122 101.264C240.636 99.3928 241.094 97.7911 241.484 96.5018C242.193 94.1883 242.688 91.8022 242.962 89.3796C243.103 88.0671 243.41 87.3177 243.902 87.0878C244.243 86.9279 244.643 87.0366 245.095 87.4104C247.468 87.2819 249.775 88.3462 251.912 89.5183L253.836 90.572L255.994 132.538C255.933 135.216 251.125 137.106 249.029 137.227C245.661 137.421 239.614 138.023 236.95 139.875C236.775 140.009 236.57 140.084 236.357 140.093L236.357 140.094Z" fill="#2F2E41"/>
<path d="M224.332 132.22C224.3 132.22 224.268 132.22 224.236 132.217L219.875 131.922C219.658 131.907 219.446 131.843 219.253 131.734C219.06 131.625 218.889 131.472 218.753 131.286C218.616 131.101 218.516 130.886 218.459 130.655C218.402 130.425 218.389 130.184 218.422 129.948L220.395 115.595L224.109 95.4558C224.2 94.9597 224.386 94.4903 224.653 94.078C224.92 93.6656 225.264 93.3196 225.66 93.0622C226.057 92.8049 226.499 92.642 226.957 92.5841C227.415 92.5262 227.879 92.5747 228.319 92.7263V92.7263C229.07 92.9897 229.712 93.5395 230.127 94.2766C230.542 95.0136 230.703 95.8893 230.582 96.7455L227.631 116.925L225.884 130.736C225.83 131.147 225.644 131.523 225.359 131.795C225.074 132.067 224.709 132.218 224.331 132.22H224.332Z" fill="#2F2E41"/>
<path d="M239.227 116.51C239.493 116.034 239.85 115.629 240.274 115.322C240.698 115.015 241.178 114.814 241.681 114.733C242.183 114.652 242.696 114.692 243.182 114.852C243.669 115.012 244.118 115.287 244.497 115.658L251.646 111.866L254.804 116.075L244.64 121.274C244.03 121.932 243.222 122.322 242.368 122.37C241.514 122.417 240.674 122.119 240.006 121.532C239.339 120.945 238.891 120.109 238.747 119.183C238.604 118.258 238.774 117.306 239.227 116.51V116.51Z" fill="#FFB8B8"/>
<path d="M249.157 120.582C248.806 120.582 248.464 120.452 248.187 120.212C247.911 119.973 247.716 119.639 247.633 119.263L246.596 114.523C246.517 114.167 246.544 113.792 246.673 113.454C246.802 113.115 247.027 112.832 247.315 112.644L253.576 108.529L250.375 95.6584C250.098 94.5563 250.225 93.3789 250.729 92.3783C251.233 91.3777 252.073 90.6334 253.07 90.3047C254.067 89.976 255.142 90.0891 256.065 90.6197C256.987 91.1503 257.683 92.0563 258.005 93.1437L261.539 104.993C261.973 106.437 261.977 107.996 261.549 109.443C261.121 110.89 260.284 112.149 259.16 113.038L250.075 120.255C249.808 120.467 249.487 120.582 249.157 120.582V120.582Z" fill="#2F2E41"/>
<path d="M181.503 0H6.18009C4.54163 0.00215337 2.97084 0.717816 1.81227 1.99C0.653703 3.26219 0.00196106 4.98702 0 6.78616V27.5027C0.00196106 29.3018 0.653703 31.0266 1.81227 32.2988C2.97084 33.571 4.54163 34.2867 6.18009 34.2888H181.503C183.141 34.2867 184.712 33.571 185.871 32.2988C187.029 31.0266 187.681 29.3018 187.683 27.5027V6.78616C187.681 4.98702 187.029 3.26219 185.871 1.99C184.712 0.717816 183.141 0.00215337 181.503 0ZM187.032 27.5027C187.03 29.1123 186.447 30.6553 185.41 31.7934C184.374 32.9316 182.969 33.572 181.503 33.5744H6.18009C4.71424 33.572 3.30905 32.9316 2.27254 31.7934C1.23603 30.6553 0.652769 29.1123 0.650613 27.5027V6.78616C0.652769 5.17656 1.23603 3.63356 2.27254 2.4954C3.30905 1.35724 4.71424 0.716784 6.18009 0.714417H181.503C182.969 0.716784 184.374 1.35724 185.41 2.4954C186.447 3.63356 187.03 5.17656 187.032 6.78616V27.5027Z" fill="#3F3D56"/>
<path d="M181.503 83.2212H6.18009C4.54163 83.219 2.97084 82.5034 1.81227 81.2312C0.653703 79.959 0.00196106 78.2342 0 76.435V55.7189C0.00196106 53.9198 0.653703 52.195 1.81227 50.9228C2.97084 49.6506 4.54163 48.9349 6.18009 48.9328H181.503C183.141 48.9349 184.712 49.6506 185.871 50.9228C187.029 52.195 187.681 53.9198 187.683 55.7189V76.435C187.681 78.2342 187.029 79.959 185.871 81.2312C184.712 82.5034 183.141 83.219 181.503 83.2212ZM6.18009 49.6472C4.71409 49.649 3.30862 50.2893 2.272 51.4276C1.23539 52.5659 0.65228 54.1092 0.650613 55.7189V76.435C0.651986 78.045 1.23496 79.5886 2.27161 80.7272C3.30826 81.8657 4.7139 82.5062 6.18009 82.508H181.503C182.969 82.5063 184.374 81.866 185.411 80.7277C186.448 79.5895 187.031 78.0461 187.033 76.4362V55.7189C187.031 54.1092 186.448 52.5659 185.411 51.4276C184.375 50.2893 182.969 49.649 181.503 49.6472H6.18009Z" fill="#CCCCCC"/>
<path d="M181.503 132.154H6.18009C4.54163 132.152 2.97084 131.436 1.81227 130.164C0.653703 128.892 0.00196106 127.167 0 125.368V104.652C0.00196106 102.853 0.653703 101.128 1.81227 99.8555C2.97084 98.5833 4.54163 97.8677 6.18009 97.8655H181.503C183.141 97.8677 184.712 98.5833 185.871 99.8555C187.029 101.128 187.681 102.853 187.683 104.652V125.368C187.681 127.167 187.029 128.892 185.871 130.164C184.712 131.436 183.141 132.152 181.503 132.154ZM6.18009 98.5783C4.71409 98.5802 3.30862 99.2205 2.272 100.359C1.23539 101.497 0.65228 103.04 0.650613 104.65V125.366C0.652182 126.976 1.23525 128.519 2.27187 129.658C3.3085 130.796 4.71403 131.436 6.18009 131.438H181.503C182.969 131.437 184.374 130.796 185.411 129.658C186.448 128.52 187.031 126.976 187.033 125.367V104.652C187.031 103.042 186.448 101.498 185.412 100.359C184.375 99.2205 182.969 98.58 181.503 98.5783H6.18009Z" fill="#CCCCCC"/>
<path d="M29.8699 28.9559C27.7424 28.9559 25.6628 28.2632 23.8939 26.9653C22.1249 25.6674 20.7462 23.8227 19.9321 21.6645C19.1179 19.5062 18.9049 17.1313 19.32 14.8401C19.735 12.5489 20.7595 10.4443 22.2638 8.79242C23.7682 7.14055 25.6848 6.01561 27.7714 5.55986C29.858 5.10411 32.0208 5.33802 33.9863 6.232C35.9518 7.12599 37.6318 8.63989 38.8137 10.5823C39.9957 12.5247 40.6265 14.8083 40.6265 17.1444C40.6265 20.277 39.4933 23.2813 37.476 25.4964C35.4587 27.7115 32.7227 28.9559 29.8699 28.9559Z" fill="#1A1A4E"/>
<path d="M165.621 26.7878H50.8005C50.1103 26.7878 49.4485 26.4868 48.9604 25.9509C48.4724 25.415 48.1982 24.6882 48.1982 23.9304C48.1982 23.1725 48.4724 22.4457 48.9604 21.9098C49.4485 21.374 50.1103 21.0729 50.8005 21.0729H165.621C166.311 21.0729 166.973 21.374 167.461 21.9098C167.949 22.4457 168.224 23.1725 168.224 23.9304C168.224 24.6882 167.949 25.415 167.461 25.9509C166.973 26.4868 166.311 26.7878 165.621 26.7878V26.7878Z" fill="#CCCCCC"/>
<path d="M128.213 14.6439H50.7981C50.1079 14.6439 49.446 14.3429 48.958 13.807C48.47 13.2711 48.1958 12.5443 48.1958 11.7865C48.1958 11.0286 48.47 10.3018 48.958 9.76593C49.446 9.23005 50.1079 8.929 50.7981 8.929H128.213C128.903 8.929 129.565 9.23005 130.053 9.76593C130.541 10.3018 130.815 11.0286 130.815 11.7865C130.815 12.5443 130.541 13.2711 130.053 13.807C129.565 14.3429 128.903 14.6439 128.213 14.6439V14.6439Z" fill="#CCCCCC"/>
<path d="M29.8699 77.8883C27.7424 77.8883 25.6628 77.1955 23.8939 75.8977C22.1249 74.5998 20.7462 72.7551 19.9321 70.5968C19.1179 68.4386 18.9049 66.0637 19.32 63.7725C19.735 61.4813 20.7595 59.3767 22.2638 57.7248C23.7682 56.0729 25.6848 54.948 27.7714 54.4922C29.858 54.0365 32.0208 54.2704 33.9863 55.1644C35.9518 56.0584 37.6318 57.5723 38.8137 59.5147C39.9957 61.4571 40.6265 63.7407 40.6265 66.0768C40.6265 69.2094 39.4933 72.2137 37.476 74.4288C35.4587 76.6438 32.7227 77.8883 29.8699 77.8883V77.8883Z" fill="#E6E6E6"/>
<path d="M165.621 75.7206H50.8005C50.1103 75.7206 49.4485 75.4196 48.9604 74.8837C48.4724 74.3478 48.1982 73.621 48.1982 72.8631C48.1982 72.1053 48.4724 71.3785 48.9604 70.8426C49.4485 70.3067 50.1103 70.0057 50.8005 70.0057H165.621C166.311 70.0057 166.973 70.3067 167.461 70.8426C167.949 71.3785 168.224 72.1053 168.224 72.8631C168.224 73.621 167.949 74.3478 167.461 74.8837C166.973 75.4196 166.311 75.7206 165.621 75.7206Z" fill="#E6E6E6"/>
<path d="M128.213 63.5767H50.7981C50.1079 63.5767 49.446 63.2757 48.958 62.7398C48.47 62.2039 48.1958 61.4771 48.1958 60.7192C48.1958 59.9614 48.47 59.2346 48.958 58.6987C49.446 58.1628 50.1079 57.8618 50.7981 57.8618H128.213C128.903 57.8618 129.565 58.1628 130.053 58.6987C130.541 59.2346 130.815 59.9614 130.815 60.7192C130.815 61.4771 130.541 62.2039 130.053 62.7398C129.565 63.2757 128.903 63.5767 128.213 63.5767V63.5767Z" fill="#E6E6E6"/>
<path d="M29.8699 126.821C27.7424 126.821 25.6628 126.128 23.8939 124.83C22.1249 123.533 20.7462 121.688 19.9321 119.53C19.1179 117.371 18.9049 114.996 19.32 112.705C19.735 110.414 20.7595 108.309 22.2638 106.658C23.7682 105.006 25.6848 103.881 27.7714 103.425C29.858 102.969 32.0208 103.203 33.9863 104.097C35.9518 104.991 37.6318 106.505 38.8137 108.447C39.9957 110.39 40.6265 112.673 40.6265 115.01C40.6265 118.142 39.4933 121.146 37.476 123.362C35.4587 125.577 32.7227 126.821 29.8699 126.821V126.821Z" fill="#E6E6E6"/>
<path d="M165.621 124.653H50.8005C50.1103 124.653 49.4485 124.352 48.9604 123.816C48.4724 123.281 48.1982 122.554 48.1982 121.796C48.1982 121.038 48.4724 120.311 48.9604 119.775C49.4485 119.239 50.1103 118.938 50.8005 118.938H165.621C166.311 118.938 166.973 119.239 167.461 119.775C167.949 120.311 168.224 121.038 168.224 121.796C168.224 122.554 167.949 123.281 167.461 123.816C166.973 124.352 166.311 124.653 165.621 124.653Z" fill="#E6E6E6"/>
<path d="M128.213 112.509H50.7981C50.1079 112.509 49.446 112.208 48.958 111.673C48.47 111.137 48.1958 110.41 48.1958 109.652C48.1958 108.894 48.47 108.167 48.958 107.631C49.446 107.096 50.1079 106.795 50.7981 106.795H128.213C128.903 106.795 129.565 107.096 130.053 107.631C130.541 108.167 130.815 108.894 130.815 109.652C130.815 110.41 130.541 111.137 130.053 111.673C129.565 112.208 128.903 112.509 128.213 112.509V112.509Z" fill="#E6E6E6"/>
<path d="M29.3211 21.2991C29.0539 21.2998 28.7938 21.2049 28.5801 21.029L28.5667 21.018L25.7787 18.6762C25.6495 18.5675 25.5412 18.4319 25.4597 18.2772C25.3783 18.1225 25.3254 17.9518 25.3041 17.7746C25.2828 17.5975 25.2935 17.4175 25.3355 17.2449C25.3776 17.0723 25.4502 16.9105 25.5491 16.7687C25.6481 16.6269 25.7716 16.5079 25.9125 16.4185C26.0533 16.3291 26.2089 16.271 26.3702 16.2476C26.5315 16.2242 26.6954 16.2359 26.8526 16.2821C27.0098 16.3282 27.1571 16.4079 27.2863 16.5166L29.0921 18.0374L33.3593 11.9242C33.5592 11.638 33.8543 11.4508 34.1799 11.4035C34.5055 11.3563 34.8348 11.453 35.0955 11.6724V11.6724L35.0692 11.713L35.0962 11.6724C35.3565 11.8921 35.5268 12.2163 35.5698 12.5738C35.6127 12.9313 35.5247 13.2929 35.3252 13.5792L30.3059 20.7665C30.1896 20.9318 30.0402 21.0655 29.8693 21.1572C29.6984 21.2489 29.5106 21.2962 29.3204 21.2954L29.3211 21.2991Z" fill="white"/>
<path d="M276.629 214H203.268C203.17 214 203.076 213.957 203.006 213.881C202.937 213.805 202.898 213.701 202.898 213.593C202.898 213.485 202.937 213.382 203.006 213.305C203.076 213.229 203.17 213.186 203.268 213.186H276.629C276.727 213.186 276.822 213.229 276.891 213.305C276.961 213.382 277 213.485 277 213.593C277 213.701 276.961 213.805 276.891 213.881C276.822 213.957 276.727 214 276.629 214Z" fill="#CCCCCC"/>
<path d="M243.186 75.4125C243.186 75.4125 242.079 68.6889 239.559 69.4923C237.039 70.2956 230.554 71.1175 230.542 67.9511C230.53 64.7846 236.646 61.9858 240.253 62.3646C243.859 62.7434 249.991 63.9023 249.653 69.8409C249.383 73.5812 248.33 77.2025 246.577 80.4229L243.186 75.4125Z" fill="#2F2E41"/>
</svg>
