<svg width="340" height="306" viewBox="0 0 340 306" fill="none" xmlns="http://www.w3.org/2000/svg">
<g clip-path="url(#clip0)">
<path d="M84.2402 77.6219C78.394 60.1637 60.34 50.4607 48.4632 54.4299C36.5863 58.3991 28.011 77.0013 33.8573 94.4595C39.2687 110.619 55.6662 119.948 66.9464 118.283C66.8651 118.425 66.8115 118.58 66.7887 118.742L66.4437 121.616C66.4175 121.835 66.4477 122.057 66.5315 122.261C66.6153 122.465 66.75 122.644 66.9227 122.782C67.0954 122.919 67.3005 123.011 67.5184 123.047C67.7363 123.083 67.9598 123.063 68.1677 122.988L73.9783 120.907C74.1862 120.832 74.3717 120.706 74.517 120.54C74.6623 120.374 74.7626 120.173 74.8085 119.957C74.8544 119.741 74.8444 119.517 74.7792 119.307C74.7141 119.096 74.5961 118.905 74.4365 118.753L72.3419 116.752C72.2675 116.684 72.1852 116.625 72.0969 116.576C82.1578 111.16 89.6635 93.8167 84.2402 77.6219Z" fill="#F2F2F2"/>
<path d="M63.0757 64.7776C67.9308 67.2807 71.6386 71.5504 73.4337 76.7054C75.2288 81.8603 74.9743 87.5071 72.7226 92.4799C72.2198 93.6234 74.0687 94.2247 74.5682 93.0887C76.9324 87.708 77.1729 81.6334 75.2414 76.083C73.31 70.5326 69.3494 65.9169 64.154 63.1615C63.0575 62.581 61.971 64.1928 63.0757 64.7776Z" fill="white"/>
<path d="M320.935 52.1739C315.088 34.7158 297.034 25.0128 285.158 28.982C273.281 32.9512 264.705 51.5534 270.552 69.0115C275.963 85.1712 292.361 94.5002 303.641 92.8354C303.559 92.9767 303.506 93.1323 303.483 93.2937L303.138 96.1676C303.112 96.3867 303.142 96.6089 303.226 96.813C303.31 97.0171 303.444 97.1965 303.617 97.334C303.79 97.4715 303.995 97.5627 304.213 97.5987C304.431 97.6348 304.654 97.6147 304.862 97.5402L310.673 95.4588C310.881 95.3844 311.066 95.2581 311.211 95.0919C311.357 94.9257 311.457 94.7251 311.503 94.5093C311.549 94.2935 311.539 94.0695 311.474 93.8586C311.409 93.6478 311.291 93.4571 311.131 93.3046L309.036 91.3045C308.962 91.2364 308.88 91.1774 308.791 91.1285C318.852 85.7121 326.358 68.3688 320.935 52.1739Z" fill="#F2F2F2"/>
<path d="M299.77 39.3297C304.625 41.8328 308.333 46.1025 310.128 51.2575C311.923 56.4124 311.669 62.0591 309.417 67.032C308.914 68.1754 310.763 68.7768 311.263 67.6408C313.627 62.2601 313.867 56.1855 311.936 50.6351C310.005 45.0847 306.044 40.469 300.849 37.7136C299.752 37.1331 298.666 38.7449 299.77 39.3297Z" fill="white"/>
<path d="M183.482 24.0752C177.636 6.61703 159.582 -3.08595 147.705 0.883228C135.828 4.8524 127.253 23.4546 133.099 40.9128C138.511 57.0725 154.908 66.4015 166.188 64.7367C166.107 64.878 166.053 65.0336 166.031 65.195L165.686 68.0689C165.659 68.288 165.689 68.5101 165.773 68.7142C165.857 68.9184 165.992 69.0977 166.165 69.2353C166.337 69.3728 166.542 69.4639 166.76 69.5C166.978 69.5361 167.202 69.5159 167.41 69.4415L173.22 67.3601C173.428 67.2856 173.614 67.1593 173.759 66.9931C173.904 66.8269 174.004 66.6264 174.05 66.4105C174.096 66.1947 174.086 65.9707 174.021 65.7599C173.956 65.549 173.838 65.3583 173.678 65.2058L171.584 63.2057C171.509 63.1377 171.427 63.0786 171.339 63.0298C181.4 57.6134 188.905 40.27 183.482 24.0752Z" fill="#F2F2F2"/>
<path d="M162.318 11.2309C167.173 13.7341 170.88 18.0038 172.676 23.1587C174.471 28.3137 174.216 33.9604 171.964 38.9333C171.462 40.0767 173.311 40.678 173.81 39.5421C176.174 34.1614 176.415 28.0867 174.483 22.5364C172.552 16.986 168.591 12.3702 163.396 9.61483C162.299 9.03433 161.213 10.6461 162.318 11.2309Z" fill="white"/>
<path d="M154.161 108.081C154.93 108.081 155.553 107.458 155.553 106.689C155.553 105.921 154.93 105.298 154.161 105.298C153.391 105.298 152.768 105.921 152.768 106.689C152.768 107.458 153.391 108.081 154.161 108.081Z" fill="#CCCCCC"/>
<path d="M151.192 163.896C152.711 163.896 153.943 162.665 153.943 161.147C153.943 159.629 152.711 158.399 151.192 158.399C149.672 158.399 148.44 159.629 148.44 161.147C148.44 162.665 149.672 163.896 151.192 163.896Z" fill="#CCCCCC"/>
<path d="M105.129 153.312C106.007 153.312 106.719 152.601 106.719 151.724C106.719 150.847 106.007 150.135 105.129 150.135C104.251 150.135 103.539 150.847 103.539 151.724C103.539 152.601 104.251 153.312 105.129 153.312Z" fill="#CCCCCC"/>
<path d="M129.283 127.305C130.234 127.305 131.004 126.535 131.004 125.585C131.004 124.636 130.234 123.865 129.283 123.865C128.332 123.865 127.561 124.636 127.561 125.585C127.561 126.535 128.332 127.305 129.283 127.305Z" fill="#CCCCCC"/>
<path d="M214.007 228.009C214.776 228.009 215.4 227.386 215.4 226.617C215.4 225.849 214.776 225.226 214.007 225.226C213.238 225.226 212.614 225.849 212.614 226.617C212.614 227.386 213.238 228.009 214.007 228.009Z" fill="#CCCCCC"/>
<path d="M168.393 199.398C169.913 199.398 171.145 198.168 171.145 196.65C171.145 195.132 169.913 193.901 168.393 193.901C166.873 193.901 165.642 195.132 165.642 196.65C165.642 198.168 166.873 199.398 168.393 199.398Z" fill="#CCCCCC"/>
<path d="M199.725 163.215C200.603 163.215 201.315 162.504 201.315 161.627C201.315 160.75 200.603 160.039 199.725 160.039C198.847 160.039 198.135 160.75 198.135 161.627C198.135 162.504 198.847 163.215 199.725 163.215Z" fill="#CCCCCC"/>
<path d="M210.18 197.352C211.131 197.352 211.902 196.582 211.902 195.632C211.902 194.682 211.131 193.912 210.18 193.912C209.23 193.912 208.459 194.682 208.459 195.632C208.459 196.582 209.23 197.352 210.18 197.352Z" fill="#CCCCCC"/>
<path d="M302.92 285.94C304.439 284.669 302.386 279.72 298.334 274.886C294.282 270.052 289.766 267.163 288.247 268.433C286.728 269.704 288.781 274.653 292.833 279.487C296.884 284.322 301.401 287.211 302.92 285.94Z" fill="#2F2E41"/>
<path d="M271.273 296.055C283.896 296.055 294.129 285.832 294.129 273.222C294.129 260.612 283.896 250.389 271.273 250.389C258.65 250.389 248.417 260.612 248.417 273.222C248.417 285.832 258.65 296.055 271.273 296.055Z" fill="#2F2E41"/>
<path d="M280.947 291.141H274.004V303.569H280.947V291.141Z" fill="#2F2E41"/>
<path d="M267.06 291.141H260.117V303.569H267.06V291.141Z" fill="#2F2E41"/>
<path d="M275.161 305.882C278.357 305.882 280.947 304.911 280.947 303.714C280.947 302.517 278.357 301.546 275.161 301.546C271.965 301.546 269.375 302.517 269.375 303.714C269.375 304.911 271.965 305.882 275.161 305.882Z" fill="#2F2E41"/>
<path d="M261.274 305.593C264.47 305.593 267.06 304.622 267.06 303.425C267.06 302.228 264.47 301.257 261.274 301.257C258.078 301.257 255.487 302.228 255.487 303.425C255.487 304.622 258.078 305.593 261.274 305.593Z" fill="#2F2E41"/>
<path d="M264.097 244.521C266.138 236.31 275.146 231.478 284.218 233.729C293.29 235.979 298.99 244.459 296.949 252.67C294.908 260.881 288.137 260.907 279.065 258.657C269.993 256.406 262.056 252.731 264.097 244.521Z" fill="#E6E6E6"/>
<path d="M255.855 267.52C256.704 265.731 252.77 262.091 247.067 259.389C241.364 256.687 236.053 255.947 235.204 257.735C234.355 259.524 238.29 263.164 243.992 265.866C249.695 268.568 255.006 269.308 255.855 267.52Z" fill="#2F2E41"/>
<path d="M267.856 276.017C272.065 276.017 275.476 272.608 275.476 268.404C275.476 264.2 272.065 260.792 267.856 260.792C263.648 260.792 260.236 264.2 260.236 268.404C260.236 272.608 263.648 276.017 267.856 276.017Z" fill="white"/>
<path d="M264.724 268.213C266.127 268.213 267.264 267.077 267.264 265.676C267.264 264.274 266.127 263.138 264.724 263.138C263.322 263.138 262.184 264.274 262.184 265.676C262.184 267.077 263.322 268.213 264.724 268.213Z" fill="#3F3D56"/>
<path d="M272.637 284.264C272.756 284.92 272.745 285.593 272.604 286.244C272.463 286.896 272.196 287.513 271.816 288.061C271.436 288.609 270.952 289.077 270.392 289.438C269.831 289.799 269.205 290.047 268.548 290.166C267.892 290.286 267.219 290.275 266.566 290.134C265.914 289.993 265.296 289.726 264.748 289.346C264.199 288.967 263.731 288.484 263.369 287.924C263.008 287.364 262.76 286.738 262.641 286.082V286.082L262.639 286.072C262.139 283.314 264.274 282.338 267.034 281.839C269.795 281.34 272.137 281.506 272.637 284.264Z" fill="white"/>
<path d="M83.3635 257.26C85.6169 251.37 85.9433 246.023 84.0925 245.316C82.2417 244.609 78.9146 248.811 76.6612 254.7C74.4078 260.59 74.0814 265.937 75.9322 266.644C77.783 267.351 81.1101 263.149 83.3635 257.26Z" fill="#2F2E41"/>
<path d="M58.8866 296.055C71.5096 296.055 81.7426 285.832 81.7426 273.222C81.7426 260.612 71.5096 250.389 58.8866 250.389C46.2635 250.389 36.0305 260.612 36.0305 273.222C36.0305 285.832 46.2635 296.055 58.8866 296.055Z" fill="#2F2E41"/>
<path d="M55.4148 291.141H48.4712V303.569H55.4148V291.141Z" fill="#2F2E41"/>
<path d="M69.302 291.141H62.3584V303.569H69.302V291.141Z" fill="#2F2E41"/>
<path d="M54.2575 305.882C57.4532 305.882 60.0439 304.911 60.0439 303.714C60.0439 302.517 57.4532 301.546 54.2575 301.546C51.0618 301.546 48.4712 302.517 48.4712 303.714C48.4712 304.911 51.0618 305.882 54.2575 305.882Z" fill="#2F2E41"/>
<path d="M68.1448 305.593C71.3405 305.593 73.9311 304.622 73.9311 303.425C73.9311 302.228 71.3405 301.257 68.1448 301.257C64.949 301.257 62.3584 302.228 62.3584 303.425C62.3584 304.622 64.949 305.593 68.1448 305.593Z" fill="#2F2E41"/>
<path d="M59.4652 275.245C63.7795 275.245 67.2768 271.751 67.2768 267.442C67.2768 263.132 63.7795 259.638 59.4652 259.638C55.151 259.638 51.6537 263.132 51.6537 267.442C51.6537 271.751 55.151 275.245 59.4652 275.245Z" fill="white"/>
<path d="M59.4652 270.043C60.9033 270.043 62.0691 268.878 62.0691 267.442C62.0691 266.005 60.9033 264.84 59.4652 264.84C58.0271 264.84 56.8613 266.005 56.8613 267.442C56.8613 268.878 58.0271 270.043 59.4652 270.043Z" fill="#3F3D56"/>
<path d="M36.7155 251.988C34.8699 243.732 40.7693 235.389 49.8921 233.354C59.0149 231.319 67.9065 236.362 69.752 244.619C71.5975 252.876 65.5515 255.921 56.4287 257.956C47.3059 259.991 38.561 260.245 36.7155 251.988Z" fill="#E6E6E6"/>
<path d="M43.4685 267.52C44.3176 265.731 40.383 262.091 34.6804 259.389C28.9777 256.687 23.6665 255.947 22.8174 257.735C21.9683 259.524 25.9029 263.164 31.6056 265.866C37.3082 268.568 42.6194 269.308 43.4685 267.52Z" fill="#2F2E41"/>
<path d="M47.6598 281.459C47.6598 283.694 53.4197 288.107 59.8111 288.107C66.2025 288.107 72.1952 281.815 72.1952 279.581C72.1952 277.346 66.2025 280.014 59.8111 280.014C53.4197 280.014 47.6598 279.225 47.6598 281.459Z" fill="white"/>
<path d="M168.063 274.318C180.686 274.318 190.919 264.096 190.919 251.485C190.919 238.875 180.686 228.653 168.063 228.653C155.44 228.653 145.207 238.875 145.207 251.485C145.207 264.096 155.44 274.318 168.063 274.318Z" fill="#2F2E41"/>
<path d="M164.591 269.405H157.647V281.833H164.591V269.405Z" fill="#2F2E41"/>
<path d="M178.478 269.405H171.535V281.833H178.478V269.405Z" fill="#2F2E41"/>
<path d="M163.434 284.145C166.629 284.145 169.22 283.174 169.22 281.977C169.22 280.78 166.629 279.81 163.434 279.81C160.238 279.81 157.647 280.78 157.647 281.977C157.647 283.174 160.238 284.145 163.434 284.145Z" fill="#2F2E41"/>
<path d="M177.321 283.856C180.517 283.856 183.107 282.885 183.107 281.688C183.107 280.491 180.517 279.521 177.321 279.521C174.125 279.521 171.535 280.491 171.535 281.688C171.535 282.885 174.125 283.856 177.321 283.856Z" fill="#2F2E41"/>
<path d="M145.892 230.252C144.046 221.995 149.945 213.652 159.068 211.617C168.191 209.582 177.083 214.626 178.928 222.882C180.774 231.139 174.728 234.184 165.605 236.219C156.482 238.254 147.737 238.508 145.892 230.252Z" fill="#2F2D58"/>
<path d="M192.693 241.508C197.642 236.559 200.394 231.289 198.839 229.737C197.284 228.184 192.011 230.938 187.061 235.886C182.111 240.835 179.359 246.105 180.914 247.657C182.469 249.21 187.743 246.456 192.693 241.508Z" fill="#2F2E41"/>
<path d="M149.64 249.248C151.195 247.696 148.443 242.426 143.493 237.477C138.543 232.528 133.27 229.775 131.715 231.327C130.16 232.88 132.912 238.15 137.862 243.098C142.812 248.047 148.085 250.8 149.64 249.248Z" fill="#2F2E41"/>
<path d="M307.016 106.574C306.258 83.1624 290.206 64.6826 271.165 65.2985C228.786 66.5529 227.752 144.188 268.667 149.764L267.8 156.643L280.437 156.235L279.127 149.426C295.586 145.792 307.704 127.8 307.016 106.574Z" fill="#FF6584"/>
<path d="M250.091 119.555L245.317 119.709C243.446 110.822 243.149 101.675 244.441 92.6849L249.215 92.5305C247.452 101.941 247.744 110.949 250.091 119.555Z" fill="white"/>
<path d="M281.056 149.319L266.734 149.782L266.838 152.961L281.159 152.498L281.056 149.319Z" fill="#3F3D56"/>
<path d="M239.458 271.059L238.016 270.385L273.474 150.264L274.916 150.939L239.458 271.059Z" fill="#3F3D56"/>
<path d="M336.363 126.372C345.022 104.603 337.689 81.2591 319.985 74.2307C280.628 58.4819 248.658 129.251 283.943 150.679L280.4 156.641L292.15 161.305L293.669 154.54C310.213 157.772 328.513 146.108 336.363 126.372Z" fill="#2F2D58"/>
<path d="M278.983 115.574L274.544 113.812C276.38 104.916 279.763 96.4118 284.539 88.6844L288.978 90.4464C283.601 98.3717 280.269 106.747 278.983 115.574Z" fill="white"/>
<path d="M282.165 149.925L280.989 152.881L294.305 158.168L295.481 155.211L282.165 149.925Z" fill="#3F3D56"/>
<path d="M239.178 267.897L237.795 267.11L287.298 154.255L288.681 155.041L239.178 267.897Z" fill="#3F3D56"/>
<path d="M67.2892 108.087C57.9207 86.6137 36.168 75.3706 18.7032 82.9748C-20.209 99.7905 7.55797 172.308 47.6383 162.38L49.3791 169.092L60.9692 164.045L57.2326 158.203C71.1809 148.748 75.7829 127.555 67.2892 108.087Z" fill="#2F2D58"/>
<path d="M19.1995 141.17L14.821 143.077C9.79332 135.51 6.13319 127.12 4.00696 118.29L8.3855 116.384C10.2296 125.779 13.8342 134.041 19.1995 141.17Z" fill="white"/>
<path d="M58.9855 157.391L45.8499 163.11L47.1221 166.026L60.2577 160.307L58.9855 157.391Z" fill="#3F3D56"/>
<path d="M89.3768 271.366C89.172 271.417 88.9553 271.384 88.7745 271.276C88.5936 271.167 88.4635 270.991 88.4127 270.786L53.8068 161.245L55.352 160.862L89.9579 270.403C89.983 270.504 89.988 270.61 89.9724 270.713C89.9568 270.816 89.921 270.915 89.8671 271.005C89.8131 271.094 89.7421 271.172 89.6579 271.234C89.5738 271.296 89.4783 271.341 89.3768 271.366Z" fill="#3F3D56"/>
<path d="M98.6256 306H15.3049C15.1641 306 15.0291 305.944 14.9296 305.845C14.8301 305.745 14.7742 305.61 14.7742 305.47C14.7742 305.329 14.8301 305.194 14.9296 305.095C15.0291 304.996 15.1641 304.94 15.3049 304.94H98.6256C98.7663 304.94 98.9013 304.996 99.0008 305.095C99.1004 305.194 99.1563 305.329 99.1563 305.47C99.1563 305.61 99.1004 305.745 99.0008 305.845C98.9013 305.944 98.7663 306 98.6256 306Z" fill="#CCCCCC"/>
<path d="M310.377 306H227.056C226.915 306 226.78 305.944 226.681 305.845C226.581 305.745 226.526 305.61 226.526 305.47C226.526 305.329 226.581 305.194 226.681 305.095C226.78 304.996 226.915 304.94 227.056 304.94H310.377C310.518 304.94 310.653 304.996 310.752 305.095C310.852 305.194 310.908 305.329 310.908 305.47C310.908 305.61 310.852 305.745 310.752 305.845C310.653 305.944 310.518 306 310.377 306Z" fill="#CCCCCC"/>
<path d="M211.135 284.263H127.814C127.674 284.263 127.539 284.207 127.439 284.108C127.34 284.008 127.284 283.874 127.284 283.733C127.284 283.592 127.34 283.458 127.439 283.358C127.539 283.259 127.674 283.203 127.814 283.203H211.135C211.276 283.203 211.411 283.259 211.51 283.358C211.61 283.458 211.666 283.592 211.666 283.733C211.666 283.874 211.61 284.008 211.51 284.108C211.411 284.207 211.276 284.263 211.135 284.263Z" fill="#CCCCCC"/>
<path d="M167.101 256.053C171.415 256.053 174.913 252.559 174.913 248.25C174.913 243.94 171.415 240.446 167.101 240.446C162.787 240.446 159.29 243.94 159.29 248.25C159.29 252.559 162.787 256.053 167.101 256.053Z" fill="white"/>
<path d="M167.101 250.851C168.539 250.851 169.705 249.686 169.705 248.25C169.705 246.813 168.539 245.648 167.101 245.648C165.663 245.648 164.497 246.813 164.497 248.25C164.497 249.686 165.663 250.851 167.101 250.851Z" fill="#3F3D56"/>
<path d="M173.302 262.682C173.543 264.006 173.248 265.372 172.482 266.479C171.715 267.586 170.54 268.343 169.214 268.584C167.888 268.825 166.521 268.53 165.413 267.764C164.305 266.998 163.547 265.824 163.306 264.5L163.304 264.49C162.805 261.732 164.939 260.756 167.7 260.257C170.461 259.758 172.802 259.924 173.302 262.682Z" fill="white"/>
</g>
<defs>
<clipPath id="clip0">
<rect width="340" height="306" fill="white"/>
</clipPath>
</defs>
</svg>
